General
Complete name                            : Russian father and son.flv
Format                                   : Flash Video
File size                                : 80.1 MiB
Duration                                 : 15mn 41s
Overall bit rate mode                    : Variable
Overall bit rate                         : 714 Kbps
Tagging application                      : Yet Another Metadata Injector for FLV - Version 1.6

Video
Format                                   : Sorenson Spark
Codec ID                                 : 2
Duration                                 : 15mn 41s
Bit rate                                 : 589 Kbps
Width                                    : 480 pixels
Height                                   : 360 pixels
Display aspect ratio                     : 4:3
Frame rate mode                          : Constant
Frame rate                               : 25.000 fps
Bit depth                                : 8 bits
Bits/(Pixel*Frame)                       : 0.136
Stream size                              : 68.0 MiB (85%)

Audio
Format                                   : MPEG Audio
Format version                           : Version 1
Format profile                           : Layer 3
Mode                                     : Joint stereo
Mode extension                           : MS Stereo
Codec ID                                 : 2
Codec ID/Hint                            : MP3
Duration                                 : 15mn 41s
Bit rate mode                            : Variable
Bit rate                                 : 99.6 Kbps
Channel(s)                               : 2 channels
Sampling rate                            : 44.1 KHz
Compression mode                         : Lossy
Stream size                              : 11.8 MiB (15%)
Writing library                          : LAME3.98.4


FULLL size image: http://bayimg.com/eAHPHAaek

You can add me on Skype if you want @ GaySubsGR

** GREEK **
Kali proboli kai min 3exnate na kanete SEED! :)

More: https://thepiratebay.se/user/GaySubsGR